# xmcd
#
# Track frame offsets:
#	150
#	22719
#	45007
#	69232
#	94900
#	117102
#	140142
#	158730
#	175545
#	196580
#	213287
#	234497
#	255915
#	283095
#	310775
#
# Disc length: 4363 seconds
#
# Revision: 1
# Processed by: cddbd v1.4PL0 Copyright (c) Steve Scherf et al.
# Submitted via: CDmax 2.0
#
DISCID=b311090f
DTITLE=Johnny 'Guitar' Watson - The very best of Johnny 'Guitar' Watson
DYEAR=1996
DGENRE=Funk Blues
TTITLE0=A real mother fa ya
TTITLE1=Tarzan
TTITLE2=Lover Jones
TTITLE3=Superman Lover
TTITLE4=Ain't that a bitch
TTITLE5=Funk beyond the call of duty
TTITLE6=It's about the dollar bill
TTITLE7=Gangser of love
TTITLE8=I need it
TTITLE9=Love that will not die
TTITLE10=Love Jones
TTITLE11=Telephone bill
TTITLE12=Lone Ranger
TTITLE13=What the hell is this?
TTITLE14=I don't want to be President
EXTD=
EXTT0=
EXTT1=
EXTT2=
EXTT3=
EXTT4=
EXTT5=
EXTT6=
EXTT7=
EXTT8=
EXTT9=
EXTT10=
EXTT11=
EXTT12=
EXTT13=
EXTT14=
PLAYORDER=
